<svg width="78" height="78" viewBox="0 0 78 78" fill="none" xmlns="http://www.w3.org/2000/svg">
<g clip-path="url(#clip0_193_491)">
<path d="M46.0301 0.0271157C45.9645 0.0212856 45.9068 0.0295449 45.8443 0.0287352C45.8403 0.0287352 45.8361 0.0271157 45.832 0.0271157C27.3105 -0.614686 7.84255 10.1492 9.52503 30.9763C9.53167 31.0606 9.55256 31.1353 9.56778 31.2138C9.54349 31.4294 9.54349 31.655 9.5958 31.9002C10.6114 36.653 9.05263 40.8315 5.1513 43.7452C4.97251 43.8784 4.8355 44.0314 4.71582 44.1909C4.32148 44.45 4.01021 44.8473 3.84243 45.3283C3.11059 47.4286 3.66656 49.5668 5.34499 51.0281C5.6216 51.2681 5.94209 51.4318 6.27554 51.5197C7.35897 52.1185 8.4918 52.5164 9.66819 52.7944C9.4264 54.0988 9.54527 55.4177 10.1735 56.6595C9.00048 58.9457 9.77913 61.4679 12.095 62.8445C12.2257 62.9225 12.356 62.981 12.4843 63.0262C12.8774 63.4942 12.9152 64.2458 12.7705 64.9687C12.7256 65.1898 12.7199 65.411 12.7368 65.6266C12.7266 65.8224 12.7327 66.0214 12.7705 66.2221C13.381 69.4243 16.1163 71.1924 19.2461 71.2493C19.4147 71.2527 19.5702 71.2352 19.7169 71.2055C19.8617 71.2122 20.0134 71.2039 20.17 71.1785C25.1964 70.3634 30.9193 70.819 32.8073 76.3396C33.1848 77.4425 34.1934 77.8166 35.0973 77.671C35.4019 77.8997 35.8029 78.0296 36.3083 77.9942C45.4164 77.3576 54.4444 76.0345 63.4881 74.8207C63.8081 74.7778 64.0852 74.6743 64.3244 74.5277C65.4208 74.1857 66.3063 72.9588 65.5983 71.6363C59.5555 60.3699 71.8054 48.0787 74.1303 37.2555C74.1813 37.0215 74.1822 36.8048 74.1616 36.5983C76.6188 18.822 64.3187 1.67429 46.0301 0.0271157ZM70.3038 35.8056C70.28 35.9701 70.2768 36.1275 70.2858 36.2788C67.7603 47.8595 56.6848 59.0552 61.0695 71.1811C52.8337 72.2995 44.6033 73.4475 36.3072 74.0281C36.2484 74.0322 36.1971 74.0479 36.1407 74.057C33.1756 67.4574 26.2765 66.274 19.4503 67.3078C19.3822 67.2995 19.3188 67.2846 19.2456 67.2831C18.4684 67.2682 18.0626 67.1878 17.4561 66.8177C17.5092 66.8342 17.1445 66.543 17.1478 66.5479C17.0956 66.4953 17.0631 66.464 17.0393 66.4434C17.0393 66.4277 17.0184 66.3809 16.9418 66.2567C16.8263 66.0716 16.7411 65.811 16.6703 65.5166C17.0223 63.0858 16.332 60.974 14.295 59.4197C14.1313 59.2955 13.948 59.2257 13.7585 59.1796C13.6997 59.1302 13.6426 59.0826 13.5809 59.0202C13.592 59.0251 13.5817 59.0005 13.5464 58.9436C13.5464 58.8934 13.543 58.8771 13.5373 58.8819C13.5616 58.7768 13.5849 58.6714 13.622 58.5693C13.6228 58.5653 13.9185 58.1065 14.0163 57.9682C14.2897 57.5824 14.3457 57.1146 14.2597 56.6647C14.341 56.2208 14.2832 55.757 14.0163 55.3704C13.266 54.2832 13.4136 53.358 14.0163 52.215C14.8795 50.5791 13.3247 49.086 11.9473 49.2389C11.9329 49.2371 11.9201 49.2322 11.9062 49.2298C10.5089 49.0455 9.15822 48.6367 7.94733 47.9131C7.86053 47.8621 7.77534 47.8309 7.69032 47.7922C7.62975 47.7042 7.57356 47.6145 7.52287 47.5217C7.51428 47.4961 7.50764 47.4739 7.49582 47.4377C7.48594 47.3917 7.47898 47.3612 7.47234 47.3316C7.46894 47.2404 7.47153 47.1507 7.47558 47.0594C7.48222 47.0347 7.49501 46.9779 7.51185 46.89C12.5509 42.9525 14.7153 37.5405 13.4892 31.2148C13.4916 31.1355 13.4999 31.0614 13.4932 30.9771C11.9808 12.2562 29.3972 3.42609 45.831 3.99501C45.8829 3.99663 45.9289 3.98756 45.9791 3.98594C45.9972 3.98756 46.0119 3.99323 46.0299 3.99501C61.632 5.40056 72.5267 20.6167 70.3038 35.8056Z" fill="#EB5757"/>
<path d="M50.2636 9.64404H38.2637C37.3781 9.64404 36.86 10.2057 36.6967 10.8693C36.3385 11.1346 36.1063 11.563 36.1584 12.1704C37.0334 22.3254 38.1214 32.4558 39.7979 42.5132C39.959 43.4804 40.7111 43.8192 41.4536 43.7091C41.5754 43.7353 41.7037 43.7494 41.8426 43.7494H46.8952C48.0086 43.7494 48.5465 42.8653 48.5202 42.0026C48.5491 41.8909 48.5711 41.7715 48.5793 41.6441C49.2594 31.6305 50.8557 21.7197 51.9479 11.7492C51.979 11.4663 51.9453 11.2237 51.868 11.0157C51.7496 10.2901 51.2142 9.64404 50.2636 9.64404ZM45.3096 40.3809H42.8483C41.3812 31.3048 40.401 22.1695 39.6008 13.0124H48.4329C47.3978 22.1375 46.0015 31.2198 45.3096 40.3809Z" fill="#EB5757"/>
<path d="M39.2639 48.431C35.5763 53.9277 44.2353 59.2979 48.1935 54.2862C49.5053 52.6251 49.7429 51.0231 49.3161 49.6778C48.1533 46.0167 42.0612 44.26 39.2639 48.431ZM44.441 53.0396C44.3416 53.0627 44.2454 53.0783 44.1516 53.0865C41.863 53.2971 41.3975 49.385 44.0544 49.2503C46.3392 49.1352 46.4764 52.5709 44.441 53.0396Z" fill="#EB5757"/>
</g>
<defs>
<clipPath id="clip0_193_491">
<rect width="78" height="78" fill="white"/>
</clipPath>
</defs>
</svg>
