<svg width="13" height="11" viewBox="0 0 13 11" fill="none" xmlns="http://www.w3.org/2000/svg">
<path d="M12.1296 2.28052C11.5492 1.57645 10.7608 1.02032 9.76464 0.612181C8.7685 0.204094 7.6802 0 6.50011 0C5.61986 0 4.77833 0.120505 3.97553 0.361565C3.17272 0.602601 2.48116 0.928403 1.90079 1.3389C1.32031 1.74944 0.858553 2.23753 0.515121 2.80314C0.17169 3.36878 0 3.96192 0 4.58248C0 5.29846 0.218774 5.96935 0.656498 6.59468C1.09422 7.21992 1.69264 7.74508 2.45202 8.16992C2.39876 8.3608 2.3359 8.54224 2.26333 8.71396C2.19078 8.8858 2.12551 9.0268 2.06747 9.13657C2.00939 9.24634 1.93087 9.36812 1.83165 9.50177C1.73258 9.63539 1.65762 9.72971 1.60683 9.78454C1.55609 9.83946 1.47267 9.93029 1.35652 10.0566C1.24053 10.1832 1.16552 10.2655 1.1317 10.3038C1.1268 10.306 1.10749 10.3276 1.07364 10.3682C1.03982 10.4087 1.02285 10.4289 1.02285 10.4289L0.979323 10.4933C0.955108 10.5292 0.944233 10.5518 0.946621 10.5612C0.94906 10.5705 0.944233 10.5945 0.932138 10.6327C0.920018 10.6709 0.921263 10.6996 0.935746 10.7188V10.7259C0.955184 10.8119 0.99749 10.881 1.06274 10.9335C1.12799 10.9859 1.20183 11.0074 1.284 10.9977C1.59844 10.9596 1.87408 10.9073 2.11102 10.8403C3.37818 10.5204 4.49057 9.94296 5.44812 9.10745C5.81076 9.14562 6.16141 9.16478 6.49996 9.16478C7.68002 9.16478 8.76827 8.96069 9.76451 8.55242C10.7608 8.14434 11.5491 7.58818 12.1294 6.88424C12.7098 6.18047 13 5.41302 13 4.58245C13 3.75186 12.7099 2.98446 12.1296 2.28052Z" fill="#0099DD"/>
</svg>
