<svg width="53" height="29" viewBox="0 0 53 29" fill="none" xmlns="http://www.w3.org/2000/svg">
<rect width="53" height="29" rx="14.5" fill="#DFDADA"/>
<g filter="url(#filter0_dd_4093_2)">
<path fill-rule="evenodd" clip-rule="evenodd" d="M14.5 25C20.299 25 25 20.299 25 14.5C25 8.70101 20.299 4 14.5 4C8.70101 4 4 8.70101 4 14.5C4 20.299 8.70101 25 14.5 25Z" fill="white"/>
<path d="M24 14.5C24 19.7467 19.7467 24 14.5 24C9.25329 24 5 19.7467 5 14.5C5 9.25329 9.25329 5 14.5 5C19.7467 5 24 9.25329 24 14.5Z" stroke="url(#paint0_linear_4093_2)" stroke-width="2"/>
<path d="M24 14.5C24 19.7467 19.7467 24 14.5 24C9.25329 24 5 19.7467 5 14.5C5 9.25329 9.25329 5 14.5 5C19.7467 5 24 9.25329 24 14.5Z" stroke="url(#paint1_linear_4093_2)" stroke-width="2"/>
</g>
<rect x="37" y="9" width="1.5" height="11" fill="white"/>
<defs>
<filter id="filter0_dd_4093_2" x="2" y="2" width="25" height="27" filterUnits="userSpaceOnUse" color-interpolation-filters="sRGB">
<feFlood flood-opacity="0" result="BackgroundImageFix"/>
<feColorMatrix in="SourceAlpha" type="matrix" values="0 0 0 0 0 0 0 0 0 0 0 0 0 0 0 0 0 0 127 0" result="hardAlpha"/>
<feOffset dy="2"/>
<feGaussianBlur stdDeviation="1"/>
<feColorMatrix type="matrix" values="0 0 0 0 0 0 0 0 0 0 0 0 0 0 0 0 0 0 0.24 0"/>
<feBlend mode="normal" in2="BackgroundImageFix" result="effect1_dropShadow_4093_2"/>
<feColorMatrix in="SourceAlpha" type="matrix" values="0 0 0 0 0 0 0 0 0 0 0 0 0 0 0 0 0 0 127 0" result="hardAlpha"/>
<feOffset/>
<feGaussianBlur stdDeviation="1"/>
<feColorMatrix type="matrix" values="0 0 0 0 0 0 0 0 0 0 0 0 0 0 0 0 0 0 0.12 0"/>
<feBlend mode="normal" in2="effect1_dropShadow_4093_2" result="effect2_dropShadow_4093_2"/>
<feBlend mode="normal" in="SourceGraphic" in2="effect2_dropShadow_4093_2" result="shape"/>
</filter>
<linearGradient id="paint0_linear_4093_2" x1="4.10275" y1="4" x2="4.10275" y2="24.7945" gradientUnits="userSpaceOnUse">
<stop stop-opacity="0"/>
<stop offset="0.8" stop-opacity="0.02"/>
<stop offset="1" stop-opacity="0.04"/>
</linearGradient>
<linearGradient id="paint1_linear_4093_2" x1="4" y1="4" x2="4" y2="25" gradientUnits="userSpaceOnUse">
<stop stop-color="white" stop-opacity="0.12"/>
<stop offset="0.2" stop-color="white" stop-opacity="0.06"/>
<stop offset="1" stop-color="white" stop-opacity="0"/>
</linearGradient>
</defs>
</svg>
