<svg width="53" height="29" viewBox="0 0 53 29" fill="none" xmlns="http://www.w3.org/2000/svg">
<rect width="53" height="29" rx="14.5" fill="#FFA43F"/>
<g filter="url(#filter0_dd_4154_2)">
<path fill-rule="evenodd" clip-rule="evenodd" d="M38.5 25C44.299 25 49 20.299 49 14.5C49 8.70101 44.299 4 38.5 4C32.701 4 28 8.70101 28 14.5C28 20.299 32.701 25 38.5 25Z" fill="white"/>
<path d="M48 14.5C48 19.7467 43.7467 24 38.5 24C33.2533 24 29 19.7467 29 14.5C29 9.25329 33.2533 5 38.5 5C43.7467 5 48 9.25329 48 14.5Z" stroke="url(#paint0_linear_4154_2)" stroke-width="2"/>
<path d="M48 14.5C48 19.7467 43.7467 24 38.5 24C33.2533 24 29 19.7467 29 14.5C29 9.25329 33.2533 5 38.5 5C43.7467 5 48 9.25329 48 14.5Z" stroke="url(#paint1_linear_4154_2)" stroke-width="2"/>
</g>
<rect x="15" y="9" width="1.5" height="11" fill="white"/>
<defs>
<filter id="filter0_dd_4154_2" x="26" y="2" width="25" height="27" filterUnits="userSpaceOnUse" color-interpolation-filters="sRGB">
<feFlood flood-opacity="0" result="BackgroundImageFix"/>
<feColorMatrix in="SourceAlpha" type="matrix" values="0 0 0 0 0 0 0 0 0 0 0 0 0 0 0 0 0 0 127 0" result="hardAlpha"/>
<feOffset dy="2"/>
<feGaussianBlur stdDeviation="1"/>
<feColorMatrix type="matrix" values="0 0 0 0 0 0 0 0 0 0 0 0 0 0 0 0 0 0 0.24 0"/>
<feBlend mode="normal" in2="BackgroundImageFix" result="effect1_dropShadow_4154_2"/>
<feColorMatrix in="SourceAlpha" type="matrix" values="0 0 0 0 0 0 0 0 0 0 0 0 0 0 0 0 0 0 127 0" result="hardAlpha"/>
<feOffset/>
<feGaussianBlur stdDeviation="1"/>
<feColorMatrix type="matrix" values="0 0 0 0 0 0 0 0 0 0 0 0 0 0 0 0 0 0 0.12 0"/>
<feBlend mode="normal" in2="effect1_dropShadow_4154_2" result="effect2_dropShadow_4154_2"/>
<feBlend mode="normal" in="SourceGraphic" in2="effect2_dropShadow_4154_2" result="shape"/>
</filter>
<linearGradient id="paint0_linear_4154_2" x1="28.1027" y1="4" x2="28.1027" y2="24.7945" gradientUnits="userSpaceOnUse">
<stop stop-opacity="0"/>
<stop offset="0.8" stop-opacity="0.02"/>
<stop offset="1" stop-opacity="0.04"/>
</linearGradient>
<linearGradient id="paint1_linear_4154_2" x1="28" y1="4" x2="28" y2="25" gradientUnits="userSpaceOnUse">
<stop stop-color="white" stop-opacity="0.12"/>
<stop offset="0.2" stop-color="white" stop-opacity="0.06"/>
<stop offset="1" stop-color="white" stop-opacity="0"/>
</linearGradient>
</defs>
</svg>
