<svg width="13" height="13" viewBox="0 0 13 13" fill="none" xmlns="http://www.w3.org/2000/svg">
<path d="M12.7179 5.89138C12.9738 5.63109 13.0641 5.24907 12.9537 4.89395C12.8431 4.53883 12.5549 4.28533 12.2009 4.23153L9.05324 3.75415C8.91919 3.73377 8.80335 3.64601 8.74348 3.51912L7.33624 0.542323C7.17824 0.207854 6.85753 0 6.50013 0C6.14299 0 5.82228 0.207854 5.66428 0.542323L4.25678 3.5194C4.19691 3.64628 4.08082 3.73404 3.94676 3.75442L0.799096 4.23181C0.445335 4.28533 0.156913 4.5391 0.046281 4.89422C-0.0640901 5.24934 0.0262372 5.63136 0.282121 5.89165L2.55957 8.20875C2.65666 8.30765 2.70118 8.45003 2.67827 8.58914L2.14099 11.861C2.09335 12.149 2.16572 12.4291 2.34429 12.65C2.62178 12.9943 3.10622 13.0992 3.49356 12.8867L6.30854 11.3418C6.4262 11.2774 6.57432 11.2779 6.69172 11.3418L9.50696 12.8867C9.64389 12.962 9.78992 13 9.94064 13C10.2158 13 10.4766 12.8723 10.656 12.65C10.8348 12.4291 10.9069 12.1485 10.8593 11.861L10.3217 8.58914C10.2988 8.44975 10.3433 8.30765 10.4404 8.20875L12.7179 5.89138Z" fill="white"/>
</svg>
