<svg width="30" height="143" viewBox="0 0 30 143" fill="none" xmlns="http://www.w3.org/2000/svg">
<path d="M4.088 14.224C3.416 14.224 2.81867 14.0747 2.296 13.776C1.77333 13.468 1.36733 13.0573 1.078 12.544C0.788667 12.0307 0.644 11.4753 0.644 10.878C0.644 10.2807 0.756 9.72067 0.98 9.198C1.21333 8.67533 1.554 8.09667 2.002 7.462L4.312 4.144L5.74 5.124L3.766 7.896L3.85 7.98C4.06467 7.88667 4.30733 7.84 4.578 7.84C5.06333 7.84 5.52533 7.97533 5.964 8.246C6.412 8.50733 6.77133 8.876 7.042 9.352C7.322 9.828 7.462 10.36 7.462 10.948C7.462 11.564 7.30333 12.124 6.986 12.628C6.678 13.132 6.26267 13.524 5.74 13.804C5.22667 14.084 4.676 14.224 4.088 14.224ZM4.046 12.544C4.48467 12.544 4.86267 12.3947 5.18 12.096C5.50667 11.7973 5.67 11.4193 5.67 10.962C5.67 10.5047 5.50667 10.1267 5.18 9.828C4.86267 9.52 4.48467 9.366 4.046 9.366C3.61667 9.366 3.23867 9.52 2.912 9.828C2.59467 10.1267 2.436 10.5047 2.436 10.962C2.436 11.4193 2.59467 11.7973 2.912 12.096C3.23867 12.3947 3.61667 12.544 4.046 12.544ZM12.8254 14.224C12.0228 14.224 11.3181 14.0093 10.7114 13.58C10.1048 13.1413 9.63342 12.544 9.29742 11.788C8.97076 11.0227 8.80742 10.164 8.80742 9.212C8.80742 8.26 8.97076 7.406 9.29742 6.65C9.63342 5.88467 10.1048 5.28733 10.7114 4.858C11.3181 4.41933 12.0228 4.2 12.8254 4.2C13.6281 4.2 14.3328 4.41933 14.9394 4.858C15.5461 5.28733 16.0128 5.88467 16.3394 6.65C16.6754 7.406 16.8434 8.26 16.8434 9.212C16.8434 10.164 16.6754 11.0227 16.3394 11.788C16.0128 12.544 15.5461 13.1413 14.9394 13.58C14.3328 14.0093 13.6281 14.224 12.8254 14.224ZM12.8254 12.502C13.2734 12.502 13.6608 12.362 13.9874 12.082C14.3234 11.7927 14.5754 11.4007 14.7434 10.906C14.9208 10.402 15.0094 9.83733 15.0094 9.212C15.0094 8.24133 14.8134 7.45267 14.4214 6.846C14.0294 6.23 13.4974 5.922 12.8254 5.922C12.1628 5.922 11.6354 6.23 11.2434 6.846C10.8514 7.462 10.6554 8.25067 10.6554 9.212C10.6554 9.83733 10.7394 10.402 10.9074 10.906C11.0848 11.4007 11.3368 11.7927 11.6634 12.082C11.9994 12.362 12.3868 12.502 12.8254 12.502ZM20.5927 8.988C20.126 8.988 19.7014 8.88067 19.3187 8.666C18.9454 8.45133 18.6514 8.162 18.4367 7.798C18.222 7.434 18.1147 7.03267 18.1147 6.594C18.1147 6.15533 18.222 5.754 18.4367 5.39C18.6514 5.026 18.9454 4.73667 19.3187 4.522C19.7014 4.30733 20.126 4.2 20.5927 4.2C21.05 4.2 21.4654 4.30733 21.8387 4.522C22.2214 4.73667 22.52 5.026 22.7347 5.39C22.9494 5.754 23.0567 6.15533 23.0567 6.594C23.0567 7.03267 22.9494 7.434 22.7347 7.798C22.52 8.162 22.2214 8.45133 21.8387 8.666C21.4654 8.88067 21.05 8.988 20.5927 8.988ZM19.8927 13.482L26.1087 4.2L27.2147 4.942L20.9987 14.224L19.8927 13.482ZM20.5927 7.616C20.8727 7.616 21.1014 7.52267 21.2787 7.336C21.4654 7.14933 21.5587 6.902 21.5587 6.594C21.5587 6.286 21.4654 6.03867 21.2787 5.852C21.1014 5.66533 20.8727 5.572 20.5927 5.572C20.322 5.572 20.0934 5.67 19.9067 5.866C19.72 6.05267 19.6267 6.29533 19.6267 6.594C19.6267 6.89267 19.72 7.14 19.9067 7.336C20.0934 7.52267 20.322 7.616 20.5927 7.616ZM26.5287 14.224C26.062 14.224 25.6374 14.1167 25.2547 13.902C24.8814 13.6873 24.5874 13.398 24.3727 13.034C24.158 12.67 24.0507 12.2687 24.0507 11.83C24.0507 11.3913 24.158 10.99 24.3727 10.626C24.5874 10.262 24.8814 9.97267 25.2547 9.758C25.6374 9.54333 26.062 9.436 26.5287 9.436C26.986 9.436 27.4014 9.54333 27.7747 9.758C28.1574 9.97267 28.456 10.262 28.6707 10.626C28.8854 10.99 28.9927 11.3913 28.9927 11.83C28.9927 12.2687 28.8854 12.67 28.6707 13.034C28.456 13.398 28.1574 13.6873 27.7747 13.902C27.4014 14.1167 26.986 14.224 26.5287 14.224ZM26.5287 12.852C26.8087 12.852 27.0374 12.7587 27.2147 12.572C27.4014 12.3853 27.4947 12.138 27.4947 11.83C27.4947 11.522 27.4014 11.2747 27.2147 11.088C27.0374 10.9013 26.8087 10.808 26.5287 10.808C26.258 10.808 26.0294 10.906 25.8427 11.102C25.656 11.2887 25.5627 11.5313 25.5627 11.83C25.5627 12.1287 25.656 12.376 25.8427 12.572C26.0294 12.7587 26.258 12.852 26.5287 12.852Z" fill="#323232"/>
<rect x="7" y="37" width="16" height="7" rx="2" fill="#F2F2F2"/>
<rect x="7" y="26" width="16" height="7" rx="2" fill="#F2F2F2"/>
<rect x="7" y="48" width="16" height="7" rx="2" fill="#F2F2F2"/>
<rect x="7" y="59" width="16" height="7" rx="2" fill="#F2F2F2"/>
<rect x="7" y="70" width="16" height="7" rx="2" fill="#F2F2F2"/>
<rect x="7" y="81" width="16" height="7" rx="2" fill="url(#paint0_linear_209_7)"/>
<rect x="7" y="92" width="16" height="7" rx="2" fill="url(#paint1_linear_209_7)"/>
<rect x="7" y="103" width="16" height="7" rx="2" fill="url(#paint2_linear_209_7)"/>
<rect x="7" y="114" width="16" height="7" rx="2" fill="url(#paint3_linear_209_7)"/>
<rect x="7" y="125" width="16" height="7" rx="2" fill="url(#paint4_linear_209_7)"/>
<rect x="7" y="136" width="16" height="7" rx="2" fill="url(#paint5_linear_209_7)"/>
<defs>
<linearGradient id="paint0_linear_209_7" x1="15" y1="81" x2="15" y2="88" gradientUnits="userSpaceOnUse">
<stop stop-color="#F2B94A"/>
<stop offset="1" stop-color="#F1B008"/>
</linearGradient>
<linearGradient id="paint1_linear_209_7" x1="15" y1="92" x2="15" y2="99" gradientUnits="userSpaceOnUse">
<stop stop-color="#F2B94A"/>
<stop offset="1" stop-color="#F1B008"/>
</linearGradient>
<linearGradient id="paint2_linear_209_7" x1="15" y1="103" x2="15" y2="110" gradientUnits="userSpaceOnUse">
<stop stop-color="#F2B94A"/>
<stop offset="1" stop-color="#F1B008"/>
</linearGradient>
<linearGradient id="paint3_linear_209_7" x1="15" y1="114" x2="15" y2="121" gradientUnits="userSpaceOnUse">
<stop stop-color="#F2B94A"/>
<stop offset="1" stop-color="#F1B008"/>
</linearGradient>
<linearGradient id="paint4_linear_209_7" x1="15" y1="125" x2="15" y2="132" gradientUnits="userSpaceOnUse">
<stop stop-color="#F2B94A"/>
<stop offset="1" stop-color="#F1B008"/>
</linearGradient>
<linearGradient id="paint5_linear_209_7" x1="15" y1="136" x2="15" y2="143" gradientUnits="userSpaceOnUse">
<stop stop-color="#F2B94A"/>
<stop offset="1" stop-color="#F1B008"/>
</linearGradient>
</defs>
</svg>
